<svg xmlns="http://www.w3.org/2000/svg" width="1365" height="768" viewBox="0 0 1365 768">
<g>
<path d="M 442.00 488.91 L 442.00 491.50 L 342.00 491.50 L 342.00 488.81 C342.00,486.36 342.42,486.06 346.75,485.47 C354.93,484.35 359.15,482.94 361.55,480.55 C361.99,480.11 362.39,479.71 362.75,479.28 C366.50,474.89 366.50,467.29 366.50,378.16 L 366.50 284.50 L 364.00 279.50 C361.33,274.16 358.49,272.20 352.22,271.38 C344.93,270.42 342.84,270.17 342.24,269.08 C342.00,268.65 342.00,268.08 342.00,267.29 L 342.00 267.20 L 342.00 264.50 L 442.00 264.50 L 442.00 267.23 C442.00,270.19 441.50,270.41 432.73,271.42 C426.06,272.19 422.13,274.50 420.17,278.82 C418.70,282.05 418.46,288.05 418.20,328.25 L 417.91 374.00 L 503.00 374.00 L 503.00 331.05 C503.00,304.20 502.60,286.22 501.93,283.09 C500.35,275.75 496.28,272.51 486.55,270.88 C479.41,269.68 479.00,269.47 479.00,267.01 L 479.00 264.41 L 529.00 264.46 L 579.00 264.50 L 579.00 267.23 C579.00,270.19 578.50,270.41 569.73,271.42 C563.40,272.15 559.42,274.33 557.27,278.27 C555.61,281.29 555.50,287.61 555.50,377.50 C555.50,468.47 555.60,473.69 557.33,477.17 C559.51,481.55 563.08,483.43 572.25,485.03 C578.76,486.16 579.00,486.31 579.00,489.10 L 579.00 492.00 L 479.00 492.00 L 479.00 489.14 C479.00,486.36 479.21,486.24 486.30,485.10 C496.42,483.46 499.51,481.37 501.45,474.87 C502.75,470.48 503.00,462.42 503.00,424.82 L 503.00 380.00 L 472.66 380.00 C455.97,380.00 436.82,380.30 430.11,380.66 L 417.91 381.31 L 418.20 427.91 C418.47,470.22 418.66,474.80 420.27,477.73 C422.48,481.78 425.56,483.33 434.75,485.00 C441.54,486.24 442.00,486.48 442.00,488.91 ZM 967.50 494.07 C956.78,496.82 936.44,497.51 925.50,495.48 C893.79,489.62 873.98,471.23 866.84,441.00 C864.27,430.12 863.22,400.48 864.94,387.50 C869.55,352.91 887.15,331.94 918.49,323.71 C930.34,320.60 955.98,320.63 968.00,323.78 C981.97,327.44 990.32,332.10 999.53,341.40 C1012.88,354.86 1018.86,369.93 1021.23,396.01 C1022.58,410.96 1021.27,430.61 1018.11,442.50 C1010.71,470.41 994.23,487.20 967.50,494.07 ZM 648.47 493.95 C644.64,494.51 640.38,494.91 639.00,494.86 C611.51,493.74 595.75,477.14 597.24,450.88 C598.49,429.03 611.26,417.76 648.14,405.99 C674.91,397.44 683.10,392.16 684.55,382.50 C685.76,374.47 684.46,348.01 682.61,343.07 C680.22,336.65 676.69,332.51 671.45,329.97 C667.35,327.99 665.73,327.80 656.67,328.22 C646.80,328.69 641.84,330.00 637.55,333.27 C635.69,334.70 635.78,334.84 639.60,336.80 C644.80,339.45 651.41,346.68 652.98,351.43 C653.68,353.55 654.05,358.16 653.83,362.05 C653.34,370.71 650.00,375.88 642.00,380.40 C637.20,383.10 635.54,383.50 629.00,383.50 C622.85,383.50 620.70,383.05 617.04,381.00 C608.28,376.08 603.72,365.03 605.81,353.75 C609.66,332.97 639.78,319.54 678.50,321.34 C685.86,321.68 694.59,322.74 698.64,323.78 C710.98,326.96 720.51,334.12 725.53,344.00 C730.22,353.21 730.29,354.29 730.91,417.65 C731.47,474.67 731.60,477.90 733.38,479.87 C736.46,483.28 738.71,483.38 744.58,480.42 C749.90,477.72 750.06,477.70 751.48,479.58 C753.48,482.22 753.39,482.59 750.25,484.80 C728.70,500.00 693.83,497.00 687.28,479.38 C686.69,477.80 685.82,474.96 685.34,473.08 L 684.47 469.66 L 680.49 474.90 C672.70,485.12 660.88,492.16 648.47,493.95 ZM 849.00 488.87 L 849.00 491.52 L 805.00 491.56 L 761.00 491.60 L 761.00 488.82 C761.00,485.90 761.17,485.81 769.22,484.52 C774.01,483.75 778.52,479.93 780.18,475.22 C781.24,472.24 781.50,451.31 781.50,369.50 C781.50,273.55 781.39,267.19 779.69,262.30 C777.25,255.33 772.60,251.28 766.01,250.41 C761.21,249.77 761.00,249.61 761.00,246.62 L 761.00 243.50 L 784.75 243.44 C802.53,243.40 810.83,242.96 817.75,241.69 C822.84,240.76 827.23,240.00 827.50,240.00 C827.78,240.00 828.03,290.96 828.06,353.25 C828.09,415.54 828.48,468.67 828.91,471.31 C829.35,473.96 830.60,477.33 831.69,478.81 C834.05,482.00 839.44,484.88 843.17,484.95 C847.50,485.03 849.00,486.03 849.00,488.87 ZM 934.90 488.01 C940.02,490.72 946.40,490.54 951.51,487.55 C965.61,479.28 972.99,452.30 972.99,409.00 C972.99,366.87 966.19,340.67 952.72,330.91 C949.46,328.55 947.68,328.00 943.30,328.00 C936.82,328.00 933.55,329.55 928.70,334.91 C920.64,343.84 916.25,357.22 913.42,381.50 C911.70,396.32 912.00,422.26 914.12,441.85 C916.66,465.31 924.37,482.44 934.90,488.01 ZM 656.50 472.84 C664.30,475.76 675.82,471.80 681.91,464.12 L 685.00 460.21 L 685.00 428.11 C685.00,410.45 684.73,396.00 684.39,396.00 C684.06,396.00 682.94,397.08 681.90,398.40 C680.86,399.72 675.51,404.04 670.02,407.99 C655.07,418.74 650.52,423.20 646.78,430.79 C643.67,437.10 643.50,438.04 643.50,448.48 C643.50,457.96 643.81,460.08 645.73,463.67 C648.07,468.05 651.50,470.97 656.50,472.84 Z" fill="rgb(67,66,66)"/>
<path d="M 578.26 574.46 C564.46,576.96 519.48,576.47 510.50,573.72 C507.75,572.88 503.70,571.89 501.50,571.51 C499.30,571.13 494.35,569.77 490.50,568.48 C486.65,567.20 481.70,565.85 479.50,565.49 C474.39,564.64 448.19,551.89 443.40,547.92 C441.49,546.34 439.95,545.40 433.32,541.82 C422.99,536.25 403.81,514.98 394.47,498.75 L 390.58 492.00 L 342.00 492.00 L 342.00 489.06 C342.00,489.00 342.00,488.94 342.00,488.88 L 342.00 491.50 L 395.50 491.50 L 395.80 494.30 C396.47,500.70 423.61,531.77 433.96,538.00 C436.25,539.38 440.72,542.13 443.90,544.13 C447.08,546.12 453.92,549.65 459.09,551.97 C464.27,554.29 470.08,557.16 472.00,558.34 C473.92,559.52 477.75,561.32 480.50,562.33 C487.57,564.92 515.34,571.91 522.50,572.89 C530.53,573.99 546.33,573.25 550.85,571.56 C552.86,570.81 557.20,569.04 560.50,567.62 C566.47,565.06 566.64,565.05 594.72,565.02 C619.50,565.00 622.87,565.18 622.36,566.51 C620.50,571.36 629.11,573.00 641.14,570.09 C645.86,568.95 654.23,567.11 659.74,566.00 C665.25,564.90 671.84,563.08 674.38,561.95 C678.36,560.19 678.93,559.58 678.44,557.61 C678.01,555.89 678.50,554.91 680.40,553.66 C681.79,552.75 683.76,552.00 684.77,552.00 C686.99,552.00 702.50,544.62 703.42,543.12 C704.48,541.41 699.13,540.59 696.40,542.05 C695.06,542.77 690.93,543.39 687.23,543.44 C682.04,543.49 679.13,544.16 674.50,546.34 C670.10,548.41 667.03,549.15 663.00,549.11 C659.97,549.09 655.81,549.52 653.75,550.07 C651.68,550.63 644.71,551.26 638.25,551.47 C617.02,552.19 571.74,553.81 562.00,554.21 C558.27,554.36 548.36,553.70 530.50,552.13 C519.92,551.20 512.24,549.44 499.59,545.05 C496.34,543.92 491.98,543.00 489.90,543.00 C487.82,543.00 485.84,542.55 485.50,542.00 C485.13,541.40 486.41,540.99 488.69,540.98 C496.45,540.95 496.98,537.55 489.80,533.91 C487.43,532.72 484.22,530.84 482.67,529.74 C477.02,525.76 460.80,518.00 458.13,518.00 C456.63,518.00 454.86,517.46 454.20,516.80 C452.67,515.27 452.64,512.00 454.15,512.00 C454.79,512.00 452.87,509.33 449.90,506.06 C446.93,502.80 442.92,498.35 441.00,496.17 L 437.50 492.21 L 427.00 491.54 C426.80,491.52 426.60,491.51 426.39,491.50 L 442.00 491.50 L 442.00 490.46 C442.60,492.95 444.58,495.48 450.61,501.89 C460.63,512.53 468.70,519.14 479.57,525.59 C496.51,535.66 520.55,544.29 540.52,547.47 C546.01,548.34 553.11,549.52 556.30,550.09 C563.96,551.45 596.06,551.43 613.00,550.06 C638.09,548.03 645.69,547.10 665.50,543.70 C670.45,542.85 678.78,541.46 684.00,540.62 C689.22,539.78 697.33,537.92 702.00,536.49 C711.52,533.57 715.92,532.63 727.45,531.05 C731.83,530.45 739.70,528.57 744.95,526.86 C765.30,520.24 766.13,520.09 758.75,524.40 C756.41,525.76 748.88,529.00 742.00,531.59 C703.95,545.94 694.00,550.17 694.00,552.04 C694.00,553.42 697.75,553.21 703.41,551.49 C706.11,550.67 709.22,550.00 710.31,550.00 C712.25,550.00 712.25,550.06 710.50,552.00 C709.50,553.10 708.23,554.00 707.67,554.00 C707.11,554.00 705.95,554.63 705.08,555.39 C701.79,558.29 660.79,569.73 639.96,573.56 C626.40,576.05 617.38,574.40 614.65,568.93 L 613.44 566.50 L 597.97 566.86 C583.31,567.21 579.00,567.91 579.00,569.97 C579.00,570.46 579.91,571.15 581.01,571.50 C583.85,572.40 582.68,573.66 578.26,574.46 ZM 505.33 264.43 L 479.72 264.41 C480.50,264.00 482.15,264.00 485.60,264.00 L 492.20 264.00 L 502.35 256.20 C514.61,246.79 520.60,242.65 537.21,232.13 C560.84,217.16 575.94,209.18 610.50,193.39 C630.94,184.05 678.13,169.40 703.50,164.51 C710.65,163.13 721.90,160.90 728.49,159.55 C758.57,153.40 805.39,150.28 827.59,152.95 C831.94,153.47 839.73,154.39 844.90,154.99 C855.41,156.21 864.37,157.96 863.68,158.65 C863.43,158.90 859.69,158.42 855.36,157.57 C844.73,155.50 816.60,153.00 803.93,153.00 C781.96,153.00 737.39,157.89 722.55,161.93 C718.67,162.98 710.55,164.79 704.50,165.95 C687.31,169.23 678.79,171.35 667.50,175.16 C662.97,176.68 654.99,179.02 650.50,180.13 C648.30,180.67 644.03,182.18 641.00,183.47 C637.97,184.77 631.22,187.49 626.00,189.53 C610.32,195.63 604.82,198.09 597.97,202.05 C594.38,204.13 588.98,206.92 585.97,208.26 C582.96,209.59 578.03,212.27 575.00,214.20 C571.97,216.13 563.88,220.77 557.00,224.50 C537.21,235.25 519.28,246.38 509.08,254.24 C503.90,258.23 499.50,262.00 499.30,262.61 C499.04,263.39 501.23,264.02 505.33,264.43 ZM 956.17 321.77 C957.34,321.95 958.50,322.13 959.55,322.29 C950.23,321.19 938.22,321.11 928.63,322.05 C931.44,321.67 934.34,321.38 937.33,321.20 L 948.44 320.50 L 949.82 313.00 C951.84,302.04 951.65,275.27 949.49,267.00 C948.56,263.42 947.58,257.69 947.32,254.25 C946.91,249.10 947.10,248.00 948.36,248.00 C949.20,248.00 950.16,248.46 950.51,249.02 C950.85,249.57 952.57,250.69 954.32,251.50 C956.07,252.30 958.27,253.52 959.20,254.19 C961.92,256.16 962.49,254.36 961.12,248.22 C958.97,238.65 958.95,237.90 960.84,238.93 C963.87,240.57 971.02,257.53 973.06,267.92 C975.05,277.99 973.76,302.66 970.73,312.50 C969.38,316.90 968.10,321.10 967.89,321.83 C967.63,322.71 970.09,324.09 975.16,325.90 C975.42,326.00 975.68,326.09 975.93,326.18 C973.49,325.32 970.86,324.53 968.00,323.78 C966.72,323.45 965.29,323.15 963.74,322.88 C965.70,323.01 966.85,320.44 969.36,310.49 C972.61,297.55 973.69,281.97 971.88,273.82 C970.41,267.20 969.13,266.06 965.43,268.04 C963.63,269.00 963.00,270.17 963.00,272.55 C963.00,275.63 960.70,278.94 959.69,277.30 C959.42,276.86 958.67,274.53 958.03,272.12 C956.20,265.31 954.75,268.46 954.32,280.20 C953.93,290.47 951.54,314.02 950.42,318.46 C949.87,320.67 950.20,320.86 956.17,321.77 ZM 418.00 371.47 C418.00,373.97 418.09,374.00 426.35,374.00 L 417.91 374.00 L 418.16 335.46 C418.16,335.66 418.17,335.85 418.18,336.00 L 418.50 341.50 L 426.83 329.68 C435.76,317.01 457.00,294.30 469.29,284.29 C473.19,281.10 477.85,276.92 479.64,275.00 C482.71,271.70 482.78,271.45 480.95,270.60 C480.17,270.24 479.61,269.60 479.30,268.73 C479.88,269.69 481.60,270.05 486.55,270.88 C488.66,271.23 490.50,271.66 492.11,272.19 C489.54,271.74 486.93,272.45 484.92,274.63 C483.59,276.07 478.90,280.39 474.50,284.22 C453.89,302.18 450.89,305.30 447.39,312.43 C445.52,316.24 443.36,320.06 442.58,320.93 C441.81,321.79 441.03,323.62 440.84,325.00 C440.65,326.38 439.85,327.50 439.05,327.50 C437.59,327.50 434.24,331.76 429.35,339.82 C427.91,342.20 426.12,347.04 425.38,350.57 C424.64,354.10 422.67,359.68 421.02,362.97 C419.36,366.25 418.00,370.08 418.00,371.47 ZM 834.85 481.78 C833.58,480.89 832.47,479.87 831.69,478.81 C830.96,477.83 830.16,476.00 829.58,474.11 C830.71,475.23 832.83,473.27 839.49,465.25 C842.34,461.82 849.51,454.90 855.43,449.88 L 866.19 440.74 L 865.59 436.62 C865.09,433.21 864.72,427.03 864.50,420.11 C864.95,428.63 865.76,436.45 866.84,441.00 C868.56,448.29 871.02,454.90 874.21,460.80 C872.21,457.50 870.55,455.00 870.35,455.00 C870.12,455.00 864.06,459.61 856.90,465.25 C849.73,470.89 841.82,476.93 839.32,478.67 ZM 420.16 477.18 C421.27,480.07 424.27,480.06 423.33,477.17 C421.78,472.40 419.73,468.85 418.77,468.46 C418.46,461.81 418.34,450.00 418.20,427.91 L 418.08 408.54 C418.21,414.73 418.46,419.00 418.76,419.00 C420.15,419.00 421.95,415.14 422.59,410.79 C422.94,408.43 424.23,404.25 425.46,401.50 C426.70,398.75 428.28,394.35 428.99,391.72 C429.70,389.10 430.66,386.71 431.14,386.42 C431.61,386.12 432.00,384.78 432.00,383.44 C432.00,381.09 431.75,381.00 425.00,381.00 L 423.72 381.00 L 430.11 380.66 C436.82,380.30 455.97,380.00 472.66,380.00 L 503.00 380.00 L 503.00 381.00 L 435.32 381.00 L 434.17 383.53 C433.54,384.92 431.21,391.54 429.00,398.24 C420.47,424.12 419.04,446.11 425.01,459.50 C425.99,461.70 427.97,466.30 429.40,469.73 C433.60,479.76 436.57,484.43 439.15,485.03 C440.34,485.31 440.99,485.77 441.38,486.82 C440.58,486.12 438.78,485.73 434.75,485.00 C425.56,483.33 422.48,481.78 420.27,477.73 C419.85,476.96 419.52,476.08 419.27,474.43 C419.57,475.48 419.88,476.47 420.16,477.18 ZM 913.01 389.39 L 913.00 393.28 L 915.75 389.71 C917.26,387.76 920.20,383.08 922.27,379.33 C924.35,375.57 926.94,371.15 928.04,369.50 C931.07,364.92 936.79,352.78 942.05,339.75 L 946.72 328.19 C947.56,328.31 948.31,328.50 949.04,328.78 C947.62,328.34 947.00,329.00 947.00,330.74 C947.00,331.63 945.20,336.75 943.00,342.12 C940.80,347.48 939.00,352.96 939.00,354.29 C939.00,356.55 939.34,356.70 944.20,356.60 C949.10,356.51 949.59,356.26 952.67,352.21 C955.63,348.33 958.25,341.97 958.52,338.00 C958.56,337.41 958.47,336.84 958.21,336.25 C960.11,338.66 961.83,341.51 963.37,344.81 C963.22,344.56 963.07,344.30 962.92,344.06 L 960.80 340.62 L 955.78 350.53 C948.14,365.62 944.10,370.03 942.50,365.00 C942.15,363.90 941.42,363.00 940.88,363.00 C938.63,363.00 932.70,368.87 929.76,374.00 C928.02,377.02 924.71,382.28 922.39,385.68 C920.07,389.09 917.89,392.78 917.54,393.88 C917.19,394.99 916.02,396.18 914.95,396.52 C913.37,397.02 913.01,398.01 913.08,401.82 C913.12,404.39 913.42,405.83 913.74,405.00 C914.05,404.17 915.04,402.83 915.93,402.00 C916.83,401.17 919.07,398.55 920.93,396.17 C924.04,392.17 928.58,389.24 929.79,390.46 C930.59,391.26 923.85,400.91 918.04,407.27 L 912.76 413.04 L 912.91 422.77 C912.97,426.56 913.13,430.22 913.37,433.76 C911.96,415.57 911.93,394.35 913.42,381.50 C913.64,379.64 913.87,377.85 914.10,376.12 C913.44,381.25 913.02,386.11 913.01,389.39 ZM 751.98 518.32 C738.12,524.44 733.24,526.04 734.46,524.06 C736.54,520.69 764.96,506.17 790.29,495.52 C794.58,493.72 798.36,491.98 798.69,491.64 C798.72,491.61 798.69,491.59 798.60,491.57 L 805.00 491.56 L 812.10 491.55 C811.27,491.67 810.46,492.11 810.22,492.83 C809.92,493.75 810.52,494.06 812.14,493.83 C813.44,493.65 814.39,493.05 814.25,492.50 C814.11,491.95 813.60,491.65 812.98,491.55 L 820.01 491.55 L 811.00 496.96 C801.20,502.84 788.29,510.00 787.47,510.00 C785.59,510.00 787.96,507.85 793.27,504.75 C801.08,500.18 804.00,497.50 804.00,494.89 C804.00,492.25 802.15,492.83 791.00,498.96 C777.18,506.55 765.30,512.45 751.98,518.32 ZM 832.66 478.55 C832.96,479.35 833.69,480.00 834.26,480.00 C834.84,480.00 841.33,475.39 848.69,469.75 C856.05,464.11 863.65,458.38 865.58,457.00 C868.95,454.60 869.07,454.30 868.57,449.58 C868.29,446.87 867.52,444.32 866.87,443.92 C864.43,442.41 844.83,460.02 840.27,467.81 C838.77,470.39 836.31,473.53 834.82,474.80 C833.24,476.13 832.33,477.71 832.66,478.55 ZM 579.00 264.04 L 579.00 267.00 L 579.00 267.12 L 579.00 264.50 L 530.22 264.46 C534.00,263.90 536.39,262.85 538.76,261.02 C541.03,259.27 546.95,255.34 556.13,249.50 C556.99,248.95 559.46,247.34 561.60,245.92 C569.44,240.73 620.79,216.00 623.73,216.00 C624.64,216.00 631.13,213.43 636.50,210.94 C644.45,207.27 673.84,197.84 690.68,193.58 C707.96,189.20 704.49,190.81 683.50,196.89 C661.28,203.34 658.46,204.32 628.50,215.96 C595.70,228.70 581.71,235.73 552.04,254.40 L 537.57 263.50 L 579.00 264.04 ZM 735.58 543.06 C730.04,544.71 724.71,546.29 723.75,546.59 C722.79,546.89 722.00,546.88 722.00,546.58 C722.00,545.79 733.57,540.59 746.66,535.49 C752.79,533.10 760.58,529.77 763.97,528.10 C767.35,526.42 772.27,524.40 774.89,523.62 C779.96,522.12 787.37,518.22 798.04,511.44 C805.68,506.59 818.18,499.84 818.65,500.32 C818.83,500.50 817.75,501.79 816.24,503.18 C806.68,512.01 756.27,536.94 735.58,543.06 ZM 426.35 374.00 C435.57,374.00 436.67,373.41 439.38,366.96 C440.19,365.06 442.75,360.80 445.09,357.50 C447.42,354.20 450.79,348.58 452.58,345.00 C454.36,341.42 457.70,336.70 460.00,334.50 C462.29,332.30 466.57,327.10 469.51,322.95 C475.09,315.07 482.17,307.59 493.47,297.61 C499.81,292.01 502.00,289.83 502.32,287.05 C502.75,294.28 503.00,309.92 503.00,331.05 L 503.00 333.00 C503.00,310.45 502.64,292.00 502.20,292.00 C500.73,292.00 476.48,317.36 466.82,329.00 C461.57,335.33 456.31,342.41 455.12,344.75 C453.93,347.09 450.91,352.17 448.41,356.03 C445.91,359.90 442.77,365.52 441.44,368.53 L 439.03 374.00 L 426.35 374.00 ZM 916.81 210.25 C916.54,213.98 916.19,214.52 914.00,214.68 C911.08,214.89 902.81,212.30 895.00,208.72 C882.42,202.96 872.57,198.04 873.60,198.02 C874.20,198.01 876.00,198.64 877.60,199.42 C893.69,207.31 902.93,210.82 908.54,211.19 C913.15,211.49 913.36,211.38 914.15,208.42 C914.64,206.59 915.99,204.87 917.49,204.19 C918.87,203.56 920.00,202.58 920.00,202.02 C920.00,201.46 920.67,201.00 921.50,201.00 C923.89,201.00 927.00,197.24 927.00,194.34 C927.00,189.16 918.94,180.84 908.50,175.26 C897.36,169.29 891.37,166.91 877.50,162.90 C862.72,158.64 862.26,157.68 876.85,161.57 C901.43,168.11 921.70,179.38 927.14,189.53 C929.58,194.07 929.52,198.54 927.00,200.75 L 923.00 204.25 C921.90,205.21 920.13,206.00 919.06,206.00 C917.49,206.00 917.06,206.81 916.81,210.25 ZM 481.78 554.15 C480.01,555.28 479.43,555.16 471.50,552.06 C462.46,548.53 451.34,542.33 450.61,540.42 C449.72,538.11 452.89,537.49 456.38,539.31 C458.10,540.20 462.63,542.09 466.46,543.50 C480.04,548.51 485.12,552.04 481.78,554.15 ZM 829.25 472.93 C829.11,472.37 829.00,471.83 828.91,471.31 C828.48,468.67 828.09,415.54 828.06,353.25 C828.04,316.45 827.94,283.61 827.81,262.89 C827.98,284.12 828.14,318.12 828.23,356.25 C828.37,415.76 828.81,465.71 829.25,472.93 ZM 970.07 367.98 C972.02,379.34 972.99,393.03 972.99,409.00 C972.99,420.36 972.49,430.59 971.48,439.66 C969.86,454.59 966.83,466.45 962.47,474.93 C966.80,466.50 969.82,454.68 971.48,439.66 C972.73,428.19 973.14,414.93 972.68,400.00 C972.30,387.54 971.42,376.82 970.07,367.98 ZM 783.18 491.58 C782.19,491.61 781.18,491.64 780.15,491.68 L 761.00 492.32 L 761.00 491.60 ZM 828.66 491.54 L 849.00 491.52 L 849.00 492.26 L 834.75 491.75 ZM 959.52 495.54 C951.10,496.92 942.25,497.25 933.49,496.41 C941.59,496.93 951.48,496.60 959.52,495.54 ZM 984.92 330.13 C990.90,333.28 995.81,337.20 1000.99,342.73 C1004.52,346.48 1007.52,350.48 1010.05,354.87 C1007.20,350.03 1003.73,345.63 999.53,341.40 C994.73,336.55 990.17,332.97 984.92,330.13 ZM 1017.02 446.33 C1016.20,449.25 1015.27,452.05 1014.25,454.68 C1013.03,457.83 1011.03,461.53 1008.64,465.18 C1012.08,459.64 1014.86,453.37 1017.02,446.33 ZM 873.68 357.86 C880.40,344.70 890.51,335.03 903.95,328.89 C890.41,335.21 880.35,344.83 873.68,357.86 ZM 1021.23 396.01 C1022.14,406.13 1021.98,416.57 1020.84,426.48 C1021.88,416.52 1022.07,405.34 1021.23,396.01 ZM 1001.17 475.01 C999.83,476.51 998.49,477.88 997.19,479.03 C994.65,481.31 991.80,483.39 988.69,485.26 C993.35,482.36 997.50,478.95 1001.17,475.01 ZM 907.75 490.41 C900.48,487.54 894.19,483.76 888.71,478.95 C894.18,483.66 900.53,487.48 907.75,490.41 ZM 914.13 441.95 C915.34,452.31 917.42,461.31 920.25,468.63 C917.35,461.24 915.25,452.20 914.13,441.95 ZM 418.00 395.69 L 417.91 381.31 L 418.00 381.31 ZM 920.16 349.43 C922.44,343.42 925.23,338.75 928.70,334.91 C925.38,338.59 922.47,343.56 920.16,349.43 ZM 842.13 484.87 C840.00,484.57 837.52,483.54 835.40,482.16 L 837.84 483.42 C839.09,484.06 840.78,484.62 842.13,484.87 ZM 497.97 275.42 C499.54,276.87 500.62,278.68 501.36,280.96 C500.60,278.75 499.41,276.88 497.97,275.42 ZM 419.63 280.41 C419.79,279.77 419.97,279.27 420.17,278.82 C420.89,277.23 421.88,275.91 423.18,274.84 C421.89,275.91 420.90,277.23 420.19,278.82 C419.98,279.28 419.79,279.80 419.63,280.41 ZM 847.93 486.04 C847.33,485.55 846.45,485.25 845.23,485.09 C846.45,485.22 847.33,485.52 847.93,486.04 ZM 342.30 486.93 C342.76,486.10 343.92,485.86 346.75,485.47 C343.93,485.86 342.77,486.12 342.30,486.93 ZM 762.52 485.87 C763.66,485.41 765.68,485.09 769.22,484.52 C765.68,485.09 763.67,485.42 762.52,485.87 ZM 827.48 240.00 C827.04,240.03 822.73,240.78 817.75,241.69 C822.84,240.76 827.21,240.00 827.48,240.00 C827.48,240.00 827.48,240.00 827.48,240.00 ZM 951.65 330.17 C951.99,330.39 952.34,330.64 952.72,330.91 C952.94,331.07 953.15,331.23 953.36,331.39 C953.13,331.22 952.88,331.04 952.63,330.85 C952.28,330.60 951.96,330.37 951.65,330.17 Z" fill="rgb(232,207,130)"/>
<path d="M 505.33 264.43 C501.23,264.02 499.04,263.39 499.30,262.61 C499.50,262.00 503.90,258.23 509.08,254.24 C519.28,246.38 537.21,235.25 557.00,224.50 C563.88,220.77 571.97,216.13 575.00,214.20 C578.03,212.27 582.96,209.59 585.97,208.26 C588.98,206.92 594.38,204.13 597.97,202.05 C604.82,198.09 610.32,195.63 626.00,189.53 C631.22,187.49 637.97,184.77 641.00,183.47 C644.03,182.18 648.30,180.67 650.50,180.13 C654.99,179.02 662.97,176.68 667.50,175.16 C678.79,171.35 687.31,169.23 704.50,165.95 C710.55,164.79 718.67,162.98 722.55,161.93 C737.39,157.89 781.96,153.00 803.93,153.00 C816.60,153.00 844.73,155.50 855.36,157.57 C859.69,158.42 863.43,158.90 863.68,158.65 C863.75,158.58 863.72,158.50 863.61,158.42 C864.73,158.67 865.87,158.93 867.00,159.20 C864.36,158.76 867.92,160.14 877.50,162.90 C891.37,166.91 897.36,169.29 908.50,175.26 C918.94,180.84 927.00,189.16 927.00,194.34 C927.00,197.24 923.89,201.00 921.50,201.00 C920.67,201.00 920.00,201.46 920.00,202.02 C920.00,202.58 918.87,203.56 917.49,204.19 C915.99,204.87 914.64,206.59 914.15,208.42 C913.36,211.38 913.15,211.49 908.54,211.19 C902.93,210.82 893.69,207.31 877.60,199.42 C876.00,198.64 874.20,198.01 873.60,198.02 C873.01,198.03 875.99,199.65 881.02,202.12 C879.71,201.50 878.35,200.85 876.95,200.18 C866.10,194.99 852.87,190.58 842.00,188.52 C837.33,187.64 831.47,186.42 829.00,185.81 C821.77,184.04 790.92,182.26 772.50,182.55 C743.39,183.02 715.87,187.51 682.00,197.35 C662.52,203.00 658.48,204.33 633.74,213.92 C658.88,204.18 662.64,202.95 683.50,196.89 C704.49,190.81 707.96,189.20 690.68,193.58 C673.84,197.84 644.45,207.27 636.50,210.94 C631.13,213.43 624.64,216.00 623.73,216.00 C620.79,216.00 569.44,240.73 561.60,245.92 C559.46,247.34 556.99,248.95 556.13,249.50 C546.95,255.34 541.03,259.27 538.76,261.02 C536.39,262.85 534.00,263.90 530.22,264.46 L 529.00 264.46 ZM 395.50 491.50 L 426.39 491.50 C426.60,491.51 426.80,491.52 427.00,491.54 L 437.50 492.21 L 441.00 496.17 C442.92,498.35 446.93,502.80 449.90,506.06 C452.87,509.33 454.79,512.00 454.15,512.00 C452.64,512.00 452.67,515.27 454.20,516.80 C454.86,517.46 456.63,518.00 458.13,518.00 C460.80,518.00 477.02,525.76 482.67,529.74 C484.22,530.84 487.43,532.72 489.80,533.91 C496.98,537.55 496.45,540.95 488.69,540.98 C486.41,540.99 485.13,541.40 485.50,542.00 C485.84,542.55 487.82,543.00 489.90,543.00 C491.98,543.00 496.34,543.92 499.59,545.05 C512.24,549.44 519.92,551.20 530.50,552.13 C548.36,553.70 558.27,554.36 562.00,554.21 C571.74,553.81 617.02,552.19 638.25,551.47 C644.71,551.26 651.68,550.63 653.75,550.07 C655.81,549.52 659.97,549.09 663.00,549.11 C667.03,549.15 670.10,548.41 674.50,546.34 C679.13,544.16 682.04,543.49 687.23,543.44 C690.93,543.39 695.06,542.77 696.40,542.05 C699.13,540.59 704.48,541.41 703.42,543.12 C702.50,544.62 686.99,552.00 684.77,552.00 C683.76,552.00 681.79,552.75 680.40,553.66 C678.50,554.91 678.01,555.89 678.44,557.61 C678.93,559.58 678.36,560.19 674.38,561.95 C671.84,563.08 665.25,564.90 659.74,566.00 C654.23,567.11 645.86,568.95 641.14,570.09 C629.11,573.00 620.50,571.36 622.36,566.51 C622.87,565.18 619.50,565.00 594.72,565.02 C566.64,565.05 566.47,565.06 560.50,567.62 C557.20,569.04 552.86,570.81 550.85,571.56 C546.33,573.25 530.53,573.99 522.50,572.89 C515.34,571.91 487.57,564.92 480.50,562.33 C477.75,561.32 473.92,559.52 472.00,558.34 C470.08,557.16 464.27,554.29 459.09,551.97 C453.92,549.65 447.08,546.12 443.90,544.13 C440.72,542.13 436.25,539.38 433.96,538.00 C423.61,531.77 396.47,500.70 395.80,494.30 ZM 418.00 371.47 C418.00,370.08 419.36,366.25 421.02,362.97 C422.67,359.68 424.64,354.10 425.38,350.57 C426.12,347.04 427.91,342.20 429.35,339.82 C434.24,331.76 437.59,327.50 439.05,327.50 C439.85,327.50 440.65,326.38 440.84,325.00 C441.03,323.62 441.81,321.79 442.58,320.93 C443.36,320.06 445.52,316.24 447.39,312.43 C450.89,305.30 453.89,302.18 474.50,284.22 C478.90,280.39 483.59,276.07 484.92,274.63 C486.93,272.45 489.54,271.74 492.11,272.19 C494.57,273.00 496.49,274.05 497.97,275.42 C499.41,276.88 500.60,278.75 501.36,280.96 C501.58,281.63 501.76,282.34 501.93,283.09 C502.07,283.75 502.20,285.10 502.32,287.05 C502.00,289.83 499.81,292.01 493.47,297.61 C482.17,307.59 475.09,315.07 469.51,322.95 C466.57,327.10 462.29,332.30 460.00,334.50 C457.70,336.70 454.36,341.42 452.58,345.00 C450.79,348.58 447.42,354.20 445.09,357.50 C442.75,360.80 440.19,365.06 439.38,366.96 C436.67,373.41 435.57,374.00 426.35,374.00 C418.09,374.00 418.00,373.97 418.00,371.47 ZM 956.17 321.77 C950.20,320.86 949.87,320.67 950.42,318.46 C951.54,314.02 953.93,290.47 954.32,280.20 C954.75,268.46 956.20,265.31 958.03,272.12 C958.67,274.53 959.42,276.86 959.69,277.30 C960.70,278.94 963.00,275.63 963.00,272.55 C963.00,270.17 963.63,269.00 965.43,268.04 C969.13,266.06 970.41,267.20 971.88,273.82 C973.69,281.97 972.61,297.55 969.36,310.49 C966.85,320.44 965.70,323.01 963.74,322.88 C962.42,322.66 961.02,322.46 959.55,322.29 C958.50,322.13 957.34,321.95 956.17,321.77 ZM 832.66 478.55 C832.33,477.71 833.24,476.13 834.82,474.80 C836.31,473.53 838.77,470.39 840.27,467.81 C844.83,460.02 864.43,442.41 866.87,443.92 C867.52,444.32 868.29,446.87 868.57,449.58 C869.07,454.30 868.95,454.60 865.58,457.00 C863.65,458.38 856.05,464.11 848.69,469.75 C841.33,475.39 834.84,480.00 834.26,480.00 C833.69,480.00 832.96,479.35 832.66,478.55 ZM 951.65 330.17 C951.96,330.37 952.28,330.60 952.63,330.85 C952.88,331.04 953.13,331.22 953.36,331.39 C955.09,332.74 956.71,334.36 958.21,336.25 C958.47,336.84 958.56,337.41 958.52,338.00 C958.25,341.97 955.63,348.33 952.67,352.21 C949.59,356.26 949.10,356.51 944.20,356.60 C939.34,356.70 939.00,356.55 939.00,354.29 C939.00,352.96 940.80,347.48 943.00,342.12 C945.20,336.75 947.00,331.63 947.00,330.74 C947.00,329.00 947.62,328.34 949.04,328.78 C949.89,329.11 950.72,329.56 951.65,330.17 ZM 418.00 395.69 L 418.00 381.31 L 423.72 381.00 L 425.00 381.00 C431.75,381.00 432.00,381.09 432.00,383.44 C432.00,384.78 431.61,386.12 431.14,386.42 C430.66,386.71 429.70,389.10 428.99,391.72 C428.28,394.35 426.70,398.75 425.46,401.50 C424.23,404.25 422.94,408.43 422.59,410.79 C421.95,415.14 420.15,419.00 418.76,419.00 C418.46,419.00 418.21,414.73 418.08,408.54 ZM 481.78 554.15 C485.12,552.04 480.04,548.51 466.46,543.50 C462.63,542.09 458.10,540.20 456.38,539.31 C452.89,537.49 449.72,538.11 450.61,540.42 C451.34,542.33 462.46,548.53 471.50,552.06 C479.43,555.16 480.01,555.28 481.78,554.15 ZM 420.16 477.18 C419.88,476.47 419.57,475.48 419.27,474.43 C419.06,473.08 418.90,471.21 418.77,468.46 C419.73,468.85 421.78,472.40 423.33,477.17 C424.27,480.06 421.27,480.07 420.16,477.18 ZM 812.10 491.55 L 812.98 491.55 C813.60,491.65 814.11,491.95 814.25,492.50 C814.39,493.05 813.44,493.65 812.14,493.83 C810.52,494.06 809.92,493.75 810.22,492.83 C810.46,492.11 811.27,491.67 812.10,491.55 ZM 916.81 210.25 C916.88,209.28 916.96,208.51 917.08,207.92 C917.02,208.46 917.00,209.16 917.00,210.03 C917.00,212.74 916.49,214.26 915.46,214.65 C914.01,215.21 911.26,214.81 906.59,213.20 C909.88,214.22 912.58,214.78 914.00,214.68 C916.19,214.52 916.54,213.98 916.81,210.25 ZM 886.16 164.33 C888.69,165.12 890.90,165.88 892.62,166.56 C893.95,167.09 895.25,167.62 896.51,168.15 C903.98,171.22 910.56,174.68 915.77,178.25 C910.72,174.82 904.26,171.43 896.51,168.15 C893.22,166.80 889.76,165.52 886.16,164.33 ZM 927.14 189.53 C925.16,185.82 921.20,181.97 915.78,178.25 C921.30,182.00 925.14,185.80 927.14,189.53 ZM 922.13 204.89 C920.84,205.81 920.13,205.99 919.11,206.00 C919.92,205.98 921.12,205.53 922.13,204.89 ZM 927.15 200.62 C927.02,200.75 926.89,200.88 926.75,201.00 C925.28,202.31 924.17,203.28 923.29,203.99 L 927.00 200.75 C927.05,200.71 927.10,200.66 927.15,200.62 ZM 927.14 189.53 C928.53,192.12 929.12,194.59 928.90,196.69 C929.09,194.58 928.50,192.07 927.14,189.53 ZM 839.87 154.41 C841.84,154.64 843.75,154.86 845.42,155.05 C845.88,155.10 846.37,155.16 846.88,155.23 C846.22,155.15 845.56,155.07 844.90,154.99 C843.40,154.82 841.67,154.62 839.87,154.41 Z" fill="rgb(251,197,34)"/>
</g>
</svg>
